<svg width="94" height="91" viewBox="0 0 94 91" fill="none" xmlns="http://www.w3.org/2000/svg">
<path d="M26.5 91C21.7 91 17.9 89.4 15.1 86.2C12.5 83 11.2 79.5 11.2 75.7C11.2 73.1 11.8 70.8 13 68.8C14.2 66.6 16 64.7 18.4 63.1L30.4 54.4L15.4 53.8C11.4 53.4 7.9 51.8 4.9 49C1.9 46.2 0.400001 42.7 0.400001 38.5C0.400001 33.9 2 30.2 5.2 27.4C8.6 24.6 12.1 23.2 15.7 23.2C17.3 23.2 18.9 23.5 20.5 24.1C22.3 24.7 23.9 25.5 25.3 26.5L37 34.9L32.8 21.1C32.6 20.1 32.4 19.3 32.2 18.7C32 17.9 31.9 17.1 31.9 16.3C31.9 11.9 33.3 8.19999 36.1 5.19999C39.1 2.19999 42.8 0.699995 47.2 0.699995C51.6 0.699995 55.2 2.19999 58 5.19999C61 8.19999 62.5 11.9 62.5 16.3C62.5 17.1 62.4 17.9 62.2 18.7C62.2 19.3 62 20.1 61.6 21.1L57.4 35.2L69.1 26.5C71.9 24.3 75.1 23.2 78.7 23.2C82.3 23.2 85.7 24.6 88.9 27.4C92.3 30.2 94 33.9 94 38.5C94 42.3 92.7 45.7 90.1 48.7C87.5 51.7 83.9 53.4 79.3 53.8L64 54.4L76.3 63.1C80.9 66.5 83.2 70.7 83.2 75.7C83.2 79.9 81.7 83.5 78.7 86.5C75.9 89.5 71.6 91 65.8 91C62.8 90.6 60.3 89.6 58.3 88C56.3 86.2 54.7 83.7 53.5 80.5L47.2 65.5L41.2 80.8C40.2 84.2 38.3 86.8 35.5 88.6C32.9 90.2 29.9 91 26.5 91Z" fill="#0091E9"/>
</svg>
